<svg width="689" height="148" viewBox="0 0 689 148" fill="none" xmlns="http://www.w3.org/2000/svg">
<path d="M2.10071 69.9264C-0.14907 71.5276 -0.674822 74.6495 0.926411 76.8993C2.52764 79.1491 5.64951 79.6748 7.89929 78.0736L2.10071 69.9264ZM686.996 73.8083C686.89 71.0489 684.568 68.8978 681.808 69.0037L636.841 70.7294C634.082 70.8353 631.931 73.1581 632.037 75.9175C632.143 78.6769 634.465 80.828 637.225 80.7221L677.195 79.1881L678.729 119.159C678.835 121.918 681.158 124.069 683.918 123.963C686.677 123.857 688.828 121.535 688.722 118.775L686.996 73.8083ZM7.89929 78.0736C43.9594 52.4086 105.893 21.5534 174.112 12.5692C242.175 3.60528 316.167 16.4181 377.375 77.5381L384.441 70.4619C320.503 6.61627 243.12 -6.60544 172.806 2.6548C102.646 11.8947 39.1991 43.5224 2.10071 69.9264L7.89929 78.0736ZM377.375 77.5381C441.05 141.121 505.88 154.711 561.139 145.317C616.067 135.98 660.993 104.042 685.669 77.3973L678.332 70.6027C654.787 96.0266 611.74 126.572 559.463 135.459C507.517 144.289 445.911 131.844 384.441 70.4619L377.375 77.5381Z" fill="white"/>
</svg>
